<?xml version="1.0" encoding="utf-8"?>
<!-- Generator: Adobe Illustrator 16.0.0, SVG Export Plug-In . SVG Version: 6.00 Build 0)  -->
<!DOCTYPE svg PUBLIC "-//W3C//DTD SVG 1.1//EN" "http://www.w3.org/Graphics/SVG/1.1/DTD/svg11.dtd">
<svg version="1.1" id="Layer_1" xmlns="http://www.w3.org/2000/svg" xmlns:xlink="http://www.w3.org/1999/xlink" x="0px" y="0px"
	 width="128px" height="128px" viewBox="0 0 128 128" enable-background="new 0 0 128 128" xml:space="preserve">
<g id="Background">
	<rect fill-opacity="0" width="128" height="128"/>
</g>
<g id="Background_1_">
	<path fill="#737370" d="M18.092,6h91.811C116.552,6,122,11.441,122,18.096v91.806c0,6.656-5.448,12.098-12.098,12.098H18.092
		C11.436,122,6,116.559,6,109.902V18.096C6,11.441,11.436,6,18.092,6"/>
	<path fill-rule="evenodd" clip-rule="evenodd" fill="#ECECEC" d="M5.822,38.102l39.438,39.864c-0.348,1.42-0.537,2.936-0.537,4.466
		c0,5.096,2.068,9.705,5.414,13.049l0.016,0.033c3.346,3.331,7.97,5.396,13.051,5.396c5.114,0,9.737-2.065,13.083-5.396V95.48
		c3.33-3.344,5.414-7.953,5.414-13.049c0-0.585-0.033-1.184-0.08-1.752l40.559-18.591V52.068L78.51,72.062
		c-0.662-0.977-1.404-1.878-2.225-2.698c-3.346-3.346-7.969-5.413-13.083-5.413c-5.081,0-9.705,2.067-13.051,5.413h-0.016
		l-0.048,0.048L5.822,24.719 M69.814,89.044l-0.016-0.016c-1.672,1.687-4.008,2.729-6.596,2.729c-2.572,0-4.908-1.043-6.596-2.714
		l-0.018-0.016c-1.672-1.69-2.713-4.024-2.713-6.597s1.057-4.909,2.73-6.598v-0.017c1.688-1.672,4.023-2.713,6.596-2.713
		c2.588,0,4.924,1.041,6.596,2.729c1.689,1.688,2.73,4.025,2.73,6.598S71.488,87.354,69.814,89.044z"/>
	<path fill="#ECECEC" d="M52.676,56.628h24.398l0.111-0.284l11.236-18.432c-3.156,0.316-9.09,6.092-9.09,6.092
		c-2.336-1.973-5.445-0.853-5.445-0.853c0.457,0.159,0.898,0.41,1.262,0.726c0.27,0.253,0.506,0.505,0.711,0.79
		c0.252,0.315,0.457,0.664,0.646,1.026c0.662,1.294,0.916,2.793,0.441,4.197c-0.41,1.263-1.545,2.24-2.824,2.572
		c-0.426,0.126-0.916,0.158-1.357,0.126c-1.688-0.095-3.156-1.136-4.086-2.492c-0.615-0.884-0.9-2.004-0.869-3.094
		c0.047-1.025,0.521-2.082,1.23-2.84c0.08-0.095,0.932-1.025,0.979-0.978c0,0-2.445-2.368-4.008-1.389c0,0,1.957-4.577-1.121-10.274
		v-0.063c0,0.016-0.016,0.016-0.016,0.032c0-0.016,0-0.016-0.016-0.032v0.063c-3.061,5.697-1.121,10.274-1.121,10.274
		c-1.546-0.979-4.009,1.389-4.009,1.389c0.048-0.047,0.9,0.882,0.979,0.978c0.726,0.758,1.183,1.815,1.23,2.84
		c0.048,1.09-0.237,2.21-0.868,3.094c-0.93,1.356-2.398,2.397-4.087,2.492c-0.442,0.032-0.931,0-1.357-0.126
		c-1.263-0.332-2.414-1.309-2.825-2.572c-0.473-1.404-0.205-2.903,0.441-4.197c0.19-0.363,0.41-0.711,0.648-1.026
		c0.205-0.285,0.441-0.536,0.709-0.79c0.363-0.315,0.806-0.567,1.264-0.726c0,0-3.109-1.12-5.43,0.853c0,0-5.949-5.776-9.089-6.092
		l11.22,18.432L52.676,56.628z"/>
</g>
</svg>
